<?xml version="1.0" encoding="iso-8859-1"?>
<!-- Generator: Adobe Illustrator 22.1.0, SVG Export Plug-In . SVG Version: 6.00 Build 0)  -->
<svg xmlns="http://www.w3.org/2000/svg" xmlns:xlink="http://www.w3.org/1999/xlink" version="1.1" id="Layer_3" x="0px" y="0px" viewBox="0 0 64 64" style="enable-background:new 0 0 64 64;" xml:space="preserve" width="512" height="512">
<g>
	<path d="M52.447,21.105l-20-10c-0.281-0.141-0.613-0.141-0.895,0l-20,10C11.214,21.275,11,21.621,11,22v16   c0,0.379,0.214,0.725,0.553,0.895l20,10C31.693,48.965,31.847,49,32,49s0.307-0.035,0.447-0.105l20-10   C52.786,38.725,53,38.379,53,38V22C53,21.621,52.786,21.275,52.447,21.105z M31,13.618V15h2v-1.382L49.764,22L33,30.382V29h-2   v1.382L14.236,22L31,13.618z M31,45v1.382L14.236,38L28,31.118l3,1.5V35h2v-2.382l3-1.5L49.764,38L33,46.382V45H31z M13,23.618   L25.764,30L13,36.382V23.618z M38.236,30L51,23.618v12.764L38.236,30z"/>
	<rect x="31" y="37" width="2" height="2"/>
	<rect x="31" y="41" width="2" height="2"/>
	<rect x="31" y="17" width="2" height="2"/>
	<rect x="31" y="21" width="2" height="2"/>
	<rect x="31" y="25" width="2" height="2"/>
	<path d="M62,9c0.553,0,1-0.447,1-1V2c0-0.553-0.447-1-1-1h-6c-0.553,0-1,0.447-1,1v2H9V2c0-0.553-0.447-1-1-1H2   C1.447,1,1,1.447,1,2v6c0,0.553,0.447,1,1,1h2v46H2c-0.553,0-1,0.447-1,1v6c0,0.553,0.447,1,1,1h6c0.553,0,1-0.447,1-1v-2h46v2   c0,0.553,0.447,1,1,1h6c0.553,0,1-0.447,1-1v-6c0-0.553-0.447-1-1-1h-2V9H62z M57,3h4v4h-4V3z M3,3h4v4H3V3z M7,61H3v-4h4V61z    M61,61h-4v-4h4V61z M58,55h-2c-0.553,0-1,0.447-1,1v2H9v-2c0-0.553-0.447-1-1-1H6V9h2c0.553,0,1-0.447,1-1V6h46v2   c0,0.553,0.447,1,1,1h2V55z"/>
</g>
</svg>
