<svg height="480pt" viewBox="-6 0 480 480.0073" width="480pt" xmlns="http://www.w3.org/2000/svg"><path d="m382.308594 111.007812c0 3.3125 2.6875 6 6 6h38.144531c3.316406 0 6-2.6875 6-6s-2.683594-6-6-6h-38.144531c-3.3125 0-6 2.6875-6 6zm0 0"/><path d="m374.027344 71.246094c1.292968 0 2.554687-.421875 3.589844-1.199219l38.144531-28.578125c2.566406-2.015625 3.054687-5.707031 1.097656-8.320312-1.957031-2.609376-5.636719-3.175782-8.289063-1.28125l-38.148437 28.574218c-2.0625 1.550782-2.90625 4.25-2.089844 6.699219.816407 2.449219 3.109375 4.101563 5.691407 4.101563zm0 0"/><path d="m370.421875 161.492188 38.148437 28.578124c2.652344 1.894532 6.332032 1.328126 8.289063-1.28125 1.957031-2.613281 1.46875-6.304687-1.097656-8.320312l-38.144531-28.578125c-1.710938-1.339844-4.015626-1.652344-6.019532-.8125-2.007812.839844-3.402344 2.699219-3.644531 4.863281-.246094 2.160156.699219 4.285156 2.46875 5.550782zm0 0"/><path d="m44.148438 117.007812c3.3125 0 6-2.6875 6-6s-2.6875-6-6-6h-38.144532c-3.3125 0-5.99999975 2.6875-5.99999975 6s2.68749975 6 5.99999975 6zm0 0"/><path d="m54.839844 151.886719-38.144532 28.578125c-2.652343 1.988281-3.1875 5.75-1.199218 8.402344 1.988281 2.648437 5.746094 3.1875 8.398437 1.199218l38.140625-28.574218c2.652344-1.988282 3.1875-5.75 1.199219-8.398438-1.988281-2.652344-5.746094-3.191406-8.398437-1.203125zm0 0"/><path d="m16.695312 41.46875 38.144532 28.578125c2.652344 1.988281 6.410156 1.449219 8.398437-1.199219 1.988281-2.652344 1.453125-6.414062-1.199219-8.402344l-38.152343-28.578124c-2.652344-1.898438-6.335938-1.328126-8.292969 1.28125-1.957031 2.609374-1.46875 6.304687 1.097656 8.316406zm0 0"/><path d="m255.957031 227.421875c4.011719-.003906 7.945313-1.132813 11.347657-3.261719-5.296876-6.078125-8.210938-13.867187-8.210938-21.925781-.082031-2.195313 1.042969-4.257813 2.933594-5.378906 1.886718-1.121094 4.234375-1.121094 6.125 0 1.886718 1.121093 3.011718 3.183593 2.933594 5.378906 0 11.984375 9.714843 21.699219 21.699218 21.699219s21.699219-9.714844 21.699219-21.699219v-6.128906c-2 .128906-2.894531.203125-4.273437.203125-3.332032.007812-6.046876-2.667969-6.089844-6-.011719-1.585938.609375-3.113282 1.726562-4.238282 1.117188-1.128906 2.640625-1.761718 4.226563-1.761718 16.949219-.011719 30.683593-13.757813 30.675781-30.710938-.011719-16.949218-13.757812-30.683594-30.710938-30.675781-3.3125.003906-6-2.679687-6.003906-5.992187-.003906-3.316407 2.683594-6.003907 5.996094-6.007813 6.472656-.003906 12.859375 1.46875 18.671875 4.3125 4.929687-4.074219 7.632813-10.242187 7.289063-16.628906-.34375-6.382813-3.695313-12.226563-9.035157-15.746094-.328125-.21875-.667969-.417969-1.007812-.617187-.015625.027343-.03125.054687-.046875.082031-1.660156 2.867187-5.328125 3.847656-8.195313 2.1875-2.871093-1.660157-3.851562-5.328125-2.191406-8.199219 7.257813-12.585938 4.695313-28.535156-6.136719-38.214844-10.828125-9.683594-26.964844-10.449218-38.664062-1.835937-2.664063 1.96875-6.421875 1.402343-8.390625-1.261719-1.96875-2.667969-1.40625-6.421875 1.261719-8.394531.898437-.664063 1.820312-1.292969 2.761718-1.878907 3.257813-6.21875 2.324219-13.808593-2.339844-19.054687-4.667968-5.25-12.09375-7.066406-18.652343-4.558594-6.5625 2.503907-10.890625 8.804688-10.871094 15.828125v188.964844c-.007813 11.871094 9.605469 21.5 21.472656 21.515625zm5.945313-149.964844c2.371094-2.316406 6.167968-2.277343 8.484375.09375 1.746093 1.777344 4.238281 2.613281 6.703125 2.25 4.707031-6.804687 13.15625-9.960937 21.175781-7.910156 3.199219.835937 5.121094 4.097656 4.300781 7.300781-.824218 3.203125-4.078125 5.136719-7.285156 4.324219-3.015625-.765625-6.195312.332031-8.101562 2.792969-1.902344 2.460937-2.164063 5.816406-.667969 8.542968 1.601562 2.902344.546875 6.554688-2.351563 8.15625-2.902344 1.601563-6.554687.546876-8.15625-2.355468-1.515625-2.734375-2.347656-5.792969-2.429687-8.921875-4.472657-.519531-8.625-2.5625-11.769531-5.785157-1.113282-1.136718-1.726563-2.671874-1.710938-4.265624.019531-1.589844.671875-3.109376 1.808594-4.222657zm-4.226563 70.550781c3.453125-2.480468 7.507813-3.996093 11.742188-4.382812-.382813-5.890625 1.457031-11.707031 5.152343-16.3125 1.328126-1.703125 3.472657-2.558594 5.613282-2.238281 2.136718.316406 3.9375 1.761719 4.714844 3.78125.773437 2.019531.402343 4.296875-.972657 5.96875-2.503906 3.136719-3.234375 7.335937-1.925781 11.132812.070312.039063.144531.066407.21875.101563 9.015625 4.539062 14.175781 14.28125 12.867188 24.289062-.433594 3.285156-3.445313 5.601563-6.734376 5.167969-3.285156-.433594-5.597656-3.445313-5.164062-6.734375.519531-4-1.054688-7.992188-4.164062-10.558594-3.113282-2.570312-7.328126-3.363281-11.160157-2.09375-1.136719.371094-2.207031.917969-3.179687 1.617188-2.691406 1.882812-6.390625 1.253906-8.308594-1.410156-1.917969-2.664063-1.339844-6.375 1.300781-8.328126zm0 0"/><path d="m380.484375 300.519531v6.386719c-.007813 13.261719 10.707031 24.035156 23.96875 24.101562h30.03125v-54h-30.03125c-13.234375 0-23.96875 10.277344-23.96875 23.511719zm0 0"/><path d="m120.863281 122.925781c-16.953125 0-30.695312 13.742188-30.695312 30.691407 0 16.949218 13.742187 30.691406 30.695312 30.691406 3.3125 0 6 2.6875 6 6-.070312 3.339844-2.804687 6.011718-6.144531 6-1.378906 0-2.234375-.070313-4.234375-.199219v6.125c0 11.945313 9.683594 21.625 21.628906 21.625 11.941407 0 21.625-9.679687 21.625-21.625 0-3.328125 2.699219-6.027344 6.027344-6.027344s6.027344 2.699219 6.027344 6.027344c.007812 8.058594-2.902344 15.847656-8.191407 21.925781 6.628907 4.140625 14.984376 4.355469 21.820313.558594 6.832031-3.792969 11.070313-10.996094 11.0625-18.8125v-188.964844c.007813-7.027344-4.328125-13.328125-10.894531-15.832031-6.5625-2.5-13.992188-.691406-18.667969 4.554687-4.675781 5.246094-5.625 12.832032-2.382813 19.066407.941407.589843 1.859376 1.214843 2.761719 1.878906 1.75 1.265625 2.6875 3.371094 2.453125 5.519531-.234375 2.144532-1.605468 4-3.585937 4.855469-1.984375.855469-4.273438.578125-5.996094-.722656-11.699219-8.613281-27.832031-7.847657-38.664063 1.835937-10.828124 9.683594-13.390624 25.632813-6.136718 38.21875 1.660156 2.867188.679687 6.539063-2.1875 8.199219-2.867188 1.660156-6.539063.679687-8.199219-2.1875-.015625-.027344-.027344-.058594-.042969-.085937-.339844.199218-.679687.402343-1.011718.617187-5.335938 3.523437-8.6875 9.363281-9.03125 15.75-.34375 6.382813 2.359374 12.550781 7.289062 16.625 5.8125-2.839844 12.203125-4.316406 18.675781-4.308594 3.3125 0 6 2.6875 6 6s-2.6875 6-6 6zm53.710938 33.460938c-1.9375 2.6875-5.6875 3.296875-8.375 1.359375-3.03125-2.183594-6.921875-2.792969-10.476563-1.640625-3.554687 1.152343-6.347656 3.929687-7.523437 7.476562-.558594 1.671875-.730469 3.453125-.5 5.199219.433593 3.285156-1.878907 6.300781-5.164063 6.734375-1.578125.207031-3.175781-.21875-4.4375-1.1875-1.261718-.96875-2.089844-2.402344-2.296875-3.980469-1.304687-10.007812 3.859375-19.746094 12.875-24.285156.070313-.035156.144531-.066406.21875-.097656 1.304688-3.796875.578125-8-1.929687-11.136719-1.375-1.667969-1.746094-3.949219-.96875-5.964844.773437-2.019531 2.574218-3.464843 4.714844-3.785156 2.136718-.316406 4.28125.539063 5.613281 2.242187 3.695312 4.601563 5.53125 10.421876 5.148437 16.3125 4.234375.382813 8.289063 1.894532 11.742188 4.375 2.691406 1.9375 3.300781 5.6875 1.359375 8.378907zm-36.246094-98.761719c8.019531-2.054688 16.464844 1.101562 21.175781 7.90625 2.464844.367188 4.960938-.46875 6.707032-2.25 2.316406-2.367188 6.113281-2.410156 8.484374-.09375 2.367188 2.316406 2.410157 6.117188.09375 8.484375-3.144531 3.222656-7.296874 5.265625-11.769531 5.789063-.082031 3.121093-.914062 6.183593-2.429687 8.914062-1.609375 2.878906-5.242188 3.917969-8.132813 2.328125-2.886719-1.589844-3.949219-5.214844-2.378906-8.117187 1.203125-2.175782 1.292969-4.796876.25-7.050782-1.046875-2.257812-3.105469-3.882812-5.542969-4.375-1.148437-.234375-2.335937-.207031-3.472656.085938-2.085938.554687-4.308594-.050782-5.824219-1.585938-1.511719-1.535156-2.085937-3.769531-1.5-5.84375.589844-2.078125 2.246094-3.675781 4.339844-4.191406zm0 0"/><path d="m462.96875 281.007812h-22.484375v12h22.484375c3.3125 0 6-2.6875 6-6s-2.6875-6-6-6zm0 0"/><path d="m462.96875 314.007812h-22.484375v12h22.484375c3.3125 0 6-2.6875 6-6s-2.6875-6-6-6zm0 0"/><path d="m269.984375 480.007812c32.855469-.039062 59.476563-26.671874 59.5-59.523437v-65.878906c-.003906-11.925781 4.738281-23.363281 13.179687-31.789063 8.445313-8.425781 19.894532-13.140625 31.820313-13.109375v-12c-31 0-57 25.523438-57 56.898438v65.875c0 26.234375-21.265625 47.5-47.5 47.5-26.230469 0-47.5-21.265625-47.5-47.5v-40.472657h-12v40.476563c.027344 32.851563 26.648437 59.484375 59.5 59.523437zm0 0"/><path d="m200.472656 313.007812h72.011719v-18h-112v18h17.964844c3.3125 0 6 2.6875 6 6s-2.6875 6-6 6h-17.964844v18h73.285156c3.316407 0 6 2.6875 6 6s-2.683593 6-6 6h-73.285156v3.132813c-.089844 3.953125 1.433594 7.777344 4.226563 10.582031 2.789062 2.804688 6.601562 4.351563 10.558593 4.285156h81.917969c4.007812.089844 7.886719-1.433593 10.761719-4.230468 2.878906-2.792969 4.511719-6.628906 4.535156-10.636719v-3.132813h-16.691406c-3.3125 0-6-2.6875-6-6s2.6875-6 6-6h16.691406v-18h-72.011719c-3.316406 0-6-2.6875-6-6s2.683594-6 6-6zm0 0"/><path d="m287.714844 234.957031-142.515625.347657c8.644531 14.492187 13.65625 30.855468 14.605469 47.703124h112.851562c1.023438-17.007812 6.191406-33.503906 15.058594-48.050781zm0 0"/></svg>