<svg height="512pt" viewBox="0 0 512 512" width="512pt" xmlns="http://www.w3.org/2000/svg"><path d="m310.855469 457.144531h64v18.285157h-64zm0 0"/><path d="m384 493.714844h-82.285156c-11.621094.011718-21.976563 7.335937-25.867188 18.285156h134.015625c-3.886719-10.949219-14.242187-18.273438-25.863281-18.285156zm0 0"/><path d="m173.714844 429.714844c0 5.050781 4.09375 9.140625 9.140625 9.140625h320c5.050781 0 9.144531-4.089844 9.144531-9.140625v-45.714844h-338.285156zm155.429687-27.429688h27.425781c5.050782 0 9.144532 4.09375 9.144532 9.144532 0 5.046874-4.09375 9.140624-9.144532 9.140624h-27.425781c-5.050781 0-9.144531-4.09375-9.144531-9.140624 0-5.050782 4.09375-9.144532 9.144531-9.144532zm0 0"/><path d="m219.429688 310.855469h18.285156v18.289062h-18.285156zm0 0"/><path d="m283.429688 173.246094v-83.308594l-18.285157 5.386719v72.53125zm0 0"/><path d="m18.285156 95.324219-18.285156-5.386719v83.308594l18.285156-5.390625zm0 0"/><path d="m82.285156 36.570312h36.570313v18.285157h-36.570313zm0 0"/><path d="m9.144531 219.429688h265.140625c5.050782 0 9.144532-4.09375 9.144532-9.144532v-17.984375l-23.445313-6.910156c-7.761719-2.3125-13.09375-9.4375-13.128906-17.535156v-72.53125c.035156-8.101563 5.375-15.226563 13.140625-17.535157l23.433594-6.90625v-16.027343c0-5.046875-4.09375-9.140625-9.144532-9.140625h-85.558594c-12.585937.003906-23.558593-8.5625-26.613281-20.773438l-4.5-18.019531c-1.019531-4.070313-4.675781-6.921875-8.867187-6.921875h-93.320313c-4.203125-.00390625-7.863281 2.855469-8.878906 6.929688l-4.488281 18.003906c-3.054688 12.214844-14.03125 20.785156-26.625 20.78125h-6.289063c-5.050781 0-9.144531 4.09375-9.144531 9.140625v16.027343l23.441406 6.90625c7.761719 2.3125 13.09375 9.433594 13.128906 17.535157v72.53125c-.03125 8.105469-5.367187 15.234375-13.136718 17.542969l-23.433594 6.902343v17.984375c0 5.050782 4.09375 9.144532 9.144531 9.144532zm210.285157-128c5.046874 0 9.140624 4.09375 9.140624 9.140624 0 5.050782-4.09375 9.144532-9.140624 9.144532-5.050782 0-9.144532-4.09375-9.144532-9.144532 0-5.046874 4.09375-9.140624 9.144532-9.140624zm0 36.570312c5.046874 0 9.140624 4.09375 9.140624 9.144531 0 5.046875-4.09375 9.140625-9.140624 9.140625-5.050782 0-9.144532-4.09375-9.144532-9.140625 0-5.050781 4.09375-9.144531 9.144532-9.144531zm0 36.570312c5.046874 0 9.140624 4.09375 9.140624 9.144532 0 5.050781-4.09375 9.140625-9.140624 9.140625-5.050782 0-9.144532-4.089844-9.144532-9.140625 0-5.050782 4.09375-9.144532 9.144532-9.144532zm-155.429688-128c0-10.097656 8.1875-18.285156 18.285156-18.285156h36.570313c10.101562 0 18.289062 8.1875 18.289062 18.285156v18.285157c0 10.101562-8.1875 18.289062-18.289062 18.289062h-36.570313c-10.097656 0-18.285156-8.1875-18.285156-18.289062zm-9.144531 82.285157c0-15.148438 12.28125-27.425781 27.429687-27.425781h82.285156c15.148438 0 27.429688 12.277343 27.429688 27.425781v54.859375c0 15.148437-12.28125 27.429687-27.429688 27.429687h-82.285156c-15.148437 0-27.429687-12.28125-27.429687-27.429687zm0 0"/><path d="m82.285156 109.714844h82.285156c5.050782 0 9.144532 4.09375 9.144532 9.140625v54.859375c0 5.050781-4.09375 9.140625-9.144532 9.140625h-82.285156c-5.050781 0-9.140625-4.089844-9.140625-9.140625v-54.859375c0-5.046875 4.089844-9.140625 9.140625-9.140625zm0 0"/><path d="m256 274.285156h18.285156v18.285156h-18.285156zm0 0"/><path d="m502.855469 173.714844h-201.140625v36.570312c0 15.148438-12.28125 27.429688-27.429688 27.429688h-100.570312v128h338.285156v-182.859375c0-5.046875-4.09375-9.140625-9.144531-9.140625zm-210.285157 128v27.429687c0 10.097657-8.1875 18.285157-18.285156 18.285157h-54.855468c-10.101563 0-18.285157-8.1875-18.285157-18.285157v-54.859375c0-10.097656 8.183594-18.285156 18.285157-18.285156h54.855468c10.097656 0 18.285156 8.1875 18.285156 18.285156zm201.144532 27.429687c0 10.097657-8.1875 18.285157-18.285156 18.285157h-137.144532c-10.097656 0-18.285156-8.1875-18.285156-18.285157v-109.714843c0-10.101563 8.1875-18.285157 18.285156-18.285157h137.144532c10.097656 0 18.285156 8.183594 18.285156 18.285157zm0 0"/><path d="m219.429688 274.285156h18.285156v18.285156h-18.285156zm0 0"/><path d="m338.285156 219.429688v109.714843h137.144532v-109.714843zm96.484375 67.125-40.0625 20.03125c-4.25 2.136718-9.300781 1.90625-13.339843-.601563-4.054688-2.488281-6.523438-6.910156-6.511719-11.667969v-40.0625c0-4.753906 2.460937-9.171875 6.503906-11.667968 4.046875-2.5 9.09375-2.730469 13.347656-.601563l40.0625 20.03125c4.652344 2.320313 7.589844 7.074219 7.589844 12.269531 0 5.199219-2.9375 9.949219-7.589844 12.269532zm0 0"/><path d="m393.144531 286.921875 25.269531-12.636719-25.269531-12.636718zm0 0"/><path d="m256 310.855469h18.285156v18.289062h-18.285156zm0 0"/><path d="m128.785156 414.035156-55.378906-33.226562c-5.648438-3.390625-12.683594-3.476563-18.414062-.230469-5.734376 3.246094-9.277344 9.324219-9.277344 15.910156v24.082031h-18.285156c-5.050782 0-9.144532-4.09375-9.144532-9.140624v-146.285157c0-5.050781-4.09375-9.144531-9.140625-9.144531-5.050781 0-9.144531 4.09375-9.144531 9.144531v146.285157c0 15.148437 12.28125 27.425781 27.429688 27.425781h18.285156v24.082031c.042968 10.082031 8.203125 18.242188 18.285156 18.289062 3.316406-.007812 6.570312-.917968 9.40625-2.632812l55.378906-33.226562c5.507813-3.304688 8.878906-9.257813 8.878906-15.679688s-3.371093-12.375-8.878906-15.679688zm0 0"/></svg>